# xmcd CD database file
#
# Track frame offsets:
#	150
#	13800
#	30140
#	50232
#	66657
#	78970
#	99847
#	116382
#	130962
#	147057
#	181992
#	198185
#	211872
#	230982
#
# Disc length: 3230 seconds
#
# Revision: 4
# Processed by: cddbd v1.5.2PL0 Copyright (c) Steve Scherf et al.
# Submitted via: CDex 1.60beta1
#
DISCID=be0c9c0e
DTITLE=Garth Brooks - Rodeo
DYEAR=1994
DGENRE=Country
TTITLE0=Much Too Young (To Feel This Damn Old)
TTITLE1=What She`s Doing Now
TTITLE2=The Thunder Rolls
TTITLE3=If Tomorrow Never Comes
TTITLE4=Papa Loves Mama
TTITLE5=You May Be Right
TTITLE6=Not Counting You
TTITLE7=The Dance
TTITLE8=Rodeo
TTITLE9=Friends In Low Places
TTITLE10=Shameless
TTITLE11=The River
TTITLE12=Keep Your Hands To Yourself
TTITLE13=We Bury The Hatchet
EXTD=YEAR: 1994
EXTT0=
EXTT1=
EXTT2=
EXTT3=
EXTT4=
EXTT5=
EXTT6=
EXTT7=
EXTT8=
EXTT9=
EXTT10=
EXTT11=
EXTT12=
EXTT13=
PLAYORDER=
